<svg width="16" height="17" viewBox="0 0 16 17" fill="none" xmlns="http://www.w3.org/2000/svg">
<g id="filter-funnel">
<path id="Icon" d="M2.25759 4.27791C1.75336 3.71437 1.50125 3.43259 1.49174 3.19312C1.48348 2.98509 1.57287 2.78515 1.73341 2.65259C1.91822 2.5 2.29632 2.5 3.05251 2.5H12.9478C13.704 2.5 14.0821 2.5 14.2669 2.65259C14.4274 2.78515 14.5168 2.98509 14.5086 3.19312C14.4991 3.43259 14.247 3.71437 13.7427 4.27791L9.93856 8.52962C9.83805 8.64196 9.7878 8.69813 9.75196 8.76205C9.72018 8.81875 9.69686 8.87978 9.68274 8.94323C9.66682 9.01476 9.66682 9.09013 9.66682 9.24087V12.8056C9.66682 12.936 9.66682 13.0011 9.6458 13.0575C9.62722 13.1073 9.597 13.1519 9.55766 13.1877C9.51314 13.2281 9.45261 13.2523 9.33156 13.3008L7.0649 14.2074C6.81987 14.3054 6.69735 14.3545 6.599 14.334C6.513 14.3161 6.43753 14.265 6.38899 14.1918C6.33349 14.1081 6.33349 13.9762 6.33349 13.7122V9.24087C6.33349 9.09013 6.33349 9.01476 6.31757 8.94323C6.30345 8.87978 6.28013 8.81875 6.24835 8.76205C6.21251 8.69813 6.16226 8.64196 6.06175 8.52962L2.25759 4.27791Z" stroke="#7B3CF3" stroke-linecap="round" stroke-linejoin="round"/>
</g>
</svg>
