<?xml version="1.0" standalone="no"?>
<!DOCTYPE svg PUBLIC "-//W3C//DTD SVG 20010904//EN"
 "http://www.w3.org/TR/2001/REC-SVG-20010904/DTD/svg10.dtd">
<svg version="1.0" xmlns="http://www.w3.org/2000/svg"
 width="512.000000pt" height="512.000000pt" viewBox="0 0 512.000000 512.000000"
 preserveAspectRatio="xMidYMid meet">

<g transform="translate(0.000000,512.000000) scale(0.100000,-0.100000)"
fill="#000000" stroke="none">
<path d="M2370 5113 c-371 -35 -653 -114 -961 -269 -386 -193 -732 -501 -982
-872 -101 -149 -233 -419 -291 -592 -159 -473 -178 -966 -56 -1450 59 -235
182 -525 306 -720 204 -321 503 -620 824 -824 100 -64 351 -186 475 -232 129
-47 369 -107 515 -129 485 -70 1003 9 1448 221 286 136 489 280 718 508 217
218 355 408 488 677 309 621 350 1331 115 1993 -47 133 -163 373 -235 486
-211 333 -537 653 -856 843 -413 246 -871 371 -1338 365 -74 0 -151 -3 -170
-5z m406 -244 c677 -66 1280 -416 1681 -977 312 -437 465 -1010 412 -1548 -51
-529 -273 -1010 -642 -1391 -173 -179 -331 -301 -537 -417 -696 -390 -1537
-394 -2240 -10 -207 113 -343 215 -526 398 -229 230 -378 447 -497 728 -249
582 -247 1241 4 1825 121 283 287 521 518 745 329 320 718 525 1161 612 229
45 448 57 666 35z"/>
<path d="M2226 3960 c-719 -91 -1246 -683 -1246 -1400 0 -675 463 -1239 1133
-1382 137 -29 387 -31 527 -4 264 51 507 173 694 347 56 53 77 79 82 105 9 47
-2 82 -36 115 -22 23 -38 29 -70 29 -52 0 -71 -10 -145 -78 -232 -215 -573
-327 -890 -294 -462 49 -838 345 -993 782 -100 286 -77 632 61 905 84 168 240
343 399 448 441 293 1034 250 1419 -101 79 -72 97 -82 149 -82 71 0 120 67
106 144 -5 26 -26 52 -82 105 -183 171 -421 292 -674 342 -110 22 -334 32
-434 19z"/>
<path d="M3560 3093 c-49 -18 -85 -80 -75 -132 5 -29 31 -61 128 -158 l121
-123 -688 0 c-744 0 -723 2 -760 -54 -21 -32 -21 -100 0 -132 37 -56 16 -54
760 -54 l688 0 -121 -122 c-97 -98 -123 -130 -128 -159 -16 -83 67 -156 152
-134 31 7 464 431 489 477 18 35 18 82 0 116 -18 32 -442 455 -473 471 -23 11
-67 13 -93 4z"/>
</g>
</svg>
